<?xml version="1.0" encoding="utf-8"?>
<!-- Generator: Adobe Illustrator 25.4.1, SVG Export Plug-In . SVG Version: 6.00 Build 0)  -->
<svg version="1.1" id="Layer_1" xmlns="http://www.w3.org/2000/svg" xmlns:xlink="http://www.w3.org/1999/xlink" x="0px" y="0px"
	 viewBox="0 0 381 87" style="enable-background:new 0 0 381 87;" xml:space="preserve">
<path d="M18.59,17.93c0,0,6.58,4.07,20.45-11.18c0,0-5.47,5.23-13.56,0c0,0-15.45-8.56-16.65,12.84
	C8.84,19.59,11.93,12.46,18.59,17.93"/>
<path d="M12.75,46.26c0,0,1.22,8.36-3.57,12.84c0,0,10.46-8.8,10.7-13.32l0.16-16.38c0,0-0.38-5.28,5.61-9.65
	c0,0-12.6,8.3-12.67,11.76c-0.03,1.46,0,0.95,0,0.95l-0.42,7.37c0,0-6.47-1.67-5.76,8.56C6.81,48.4,7.52,44.6,12.75,46.26"/>
<path d="M41.66,7.74L25.25,20.58c0,0-3.81,2.85-3.81,7.37v0.95v1.34v17.21c0,0-0.35,2.62-4.52,6.06c0,0-11.29,8.09-11.47,17.24
	c0,0,5.76-9.51,16.11-4.28c0,0,8.09,5.59,15.34-1.19c0,0,19.74-19.62,19.26-30.44C56.17,34.85,57.95,22.36,41.66,7.74z M48.68,50.07
	c0,0-1.04,2.53-3.5,4.7c-2.78,2.46-7.38,4.44-14.33,1.72c0,0-7.13-3.69-14.51-0.48c0,0,0.01-0.01,0.04-0.02
	c0.77-0.42,13.17-7.21,13.4-13.89l0.24-21.52c0,0-0.01-0.06-0.01-0.17c-0.01-0.58,0.12-2.55,2.11-4.39
	c0.66-0.61,1.52-1.21,2.66-1.75C34.76,14.28,55.48,39.25,48.68,50.07z"/>
<path d="M93.75,56.38l-0.66,0.59c-3.39-1.84-4.82-6.6-4.82-6.6V32.41l-9.69-8.09c-6.3,7.67-19.21,7.67-19.21,7.67v24.73
	c3.21,7.49,9.75,10.53,9.75,10.53l8.8-12.07c1.19,9.21,9.16,11.47,9.16,11.47l7.17-9.79L93.75,56.38z M78.19,54.11L78.19,54.11
	l-0.98,1.25l-0.98,1.25c0,0-4.15-1.1-5.85-4.83c-0.11-0.25-0.21-0.51-0.3-0.78V31.01l8.12,6.96V54.11z"/>
<path d="M325.58,56.15l-0.62,0.81c-3.39-1.84-4.81-6.6-4.81-6.6V32.41l-9.69-8.09c-6.3,7.67-19.2,7.67-19.2,7.67v24.73
	c3.21,7.49,9.75,10.53,9.75,10.53l8.8-12.07c1.19,9.21,9.16,11.47,9.16,11.47l7.11-10.05L325.58,56.15z M310.06,54.11L310.06,54.11
	L310.06,54.11l-0.5,0.64l-1.46,1.86c0,0-2.22-0.59-4.07-2.36c-0.85-0.82-1.63-1.88-2.08-3.26V31.01l8.12,6.96V54.11z"/>
<path d="M108.25,52.86l0-19.98c0.18-6.24-6.6-8.56-6.6-8.56l-9.58,9.06l0.25,0.42c1.87-0.61,2.32-0.37,2.32-0.37
	c2.76,0.71,3.35,4.54,3.35,4.54l0.18,19.83c-0.27,5.38,7.13,8.98,7.13,8.98l7.84-10.36l-0.39-0.45
	C108.55,58.35,108.25,52.86,108.25,52.86"/>
<polygon points="94.31,13.98 102.09,23.17 110.57,13.87 110.31,13.54 109.7,14.11 102.18,5.06 93.62,14.11 93.79,14.48 "/>
<path d="M130.28,57.52c-2.79-0.66-3.48-6.8-3.48-6.8V19.33c-0.36-7.13-5.71-9.81-5.71-9.81l-7.94,9.3l0.5,0.37l0.55-0.62
	c1.96,1.13,2.32,3.57,2.32,3.57l0.06,35.79c-0.06,6.18,7.79,8.56,7.79,8.56l6.94-9.26l-0.41-0.44L130.28,57.52z"/>
<path d="M342.17,57.52c-2.79-0.66-3.48-6.8-3.48-6.8V19.33c-0.36-7.13-5.71-9.81-5.71-9.81l-7.93,9.27l0.44,0.44l0.59-0.67
	c1.96,1.13,2.32,3.57,2.32,3.57l0.06,35.79c-0.06,6.18,7.79,8.56,7.79,8.56l6.92-9.22l-0.45-0.39L342.17,57.52z"/>
<path d="M150.21,56.79c-3.7,0.4-4.5-4.01-4.5-4.01V32.89c-0.09-4.91-6.69-8.56-6.69-8.56l-8.23,8.61l0.3,0.49l0.61-0.54
	c3.03,0.89,3.48,3.57,3.48,3.57l-0.09,20.15c0.27,5.71,8.92,10.17,8.92,10.17l9.87-14.51l0-0.89L150.21,56.79z"/>
<path d="M164.43,55.54l0-21.31c0.18-7.67-7.04-9.9-7.04-9.9l-8.33,8.64l0.45,0.48l0.74-0.74c2.72,0.45,3.57,4.73,3.57,4.73
	l0.06,13.95l0,0.89l0.02,5.41c0.09,5.53,4.01,9.58,4.01,9.58c3.12,2.73-1.61,5.5-1.61,5.5c-2.85-4.46-8.92-4.31-8.92-4.31
	c-11.33-0.3-13.91,13.85-13.91,13.85c7.4-8.65,15.25-0.45,15.25-0.45l16.77-15.37c3.03-2.71,1.61-4.7,1.61-4.7
	C164.21,59.51,164.43,55.54,164.43,55.54"/>
<path d="M188.69,19.93c0,0,4.35,4.61,18.97-10.91c0,0-3.35,3.38-12.07-0.27c0,0-14.66-8.2-15.84,13.2
	C179.75,21.95,182.26,14.28,188.69,19.93"/>
<path d="M184.91,46.92c0,0,1.1,10.94-3.12,16.38c0,0,9.93-9.81,10.16-14.32l0.09-19.35c0,0-0.58-5.08,3.39-8.83
	c0,0-10.84,5.4-10.82,10.94c0,1.46,0,0.95,0,0.95l0.03,7.37c0,0-6.06-0.86-5.35,9.37C179.29,49.41,179.68,45.25,184.91,46.92"/>
<path d="M228.29,16.44l-0.6-0.71l-0.92,0.68l-7.14-8.14l-9.83,9.29l0.54,0.79l1.03-0.8l1.29,2.16l0.01,13.1l-10.26,0.18l-0.08-15.27
	c0,0-0.2-1.11,1.65-3.63c0.71-0.73-10.12,8.83-10.12,12.57c0,0,0.24,20.75-0.2,25.46c-0.11,1.2-11.48,12.8-11.48,12.8
	s-1.34,1.25-1.61,4.81c0,0,7.31-6.95,13.65,0l8.01-11.62l-0.63-0.46l-0.96,1.2c0,0-3.98-4.97-10.79-1.16c0,0,12.57-8.03,12.49-11.68
	v-4.46l10.52-0.09v16.77l-2.65,2.47l0.48,0.57l0.69-0.52l6.37,7.71l10.52-9.28l-0.48-0.66l-0.72,0.61l-2.99-2.95l0.27-36.21
	L228.29,16.44z"/>
<path d="M250.49,57.88c-8.3-0.63-8.65-9.92-8.65-9.92l16.23-14l-7.31-9.63l-19.26,6.69v22.74c0,9.19,11.68,13.5,11.68,13.5
	l14.04-14.63l-0.5-0.66L250.49,57.88z M242.11,45.79V29.5v0l7.4,10.17L242.11,45.79L242.11,45.79z"/>
<path d="M275.28,33.33c-0.45-6.42-6.6-9.01-6.6-9.01l-8.01,8.08l0.43,0.66c3.14-2.07,4.01,4.01,4.01,4.01l0.18,21.05
	c0.27,4.82,7.31,9.13,7.31,9.13l7.16-9.6l-0.7-0.53l-0.35,0.4c-2.59-0.62-3.43-5.02-3.43-5.02V38.26v-2.61V33.33z"/>
<path d="M283.04,24.32c0,0-5.89,5.26-7.76,11.32v2.61c0,0,0-4.21,1.96-3.59l5.8,11.12l6.42-11.66
	C289.46,34.13,288.12,27.18,283.04,24.32"/>
<path d="M361.7,10.05c0,0-9.99,2.41-9.81,11.06c0,0-1.25,9.09,14.62,14.54l0.18,24.52c0,0-9.36,0.54-9.36-7.04l0.09-21.67l-10.7,3.6
	v20.84c0,0,2.05,8.3,9.01,11.77c0,0,8.12-7.32,20.96-10.17V25.75C376.68,25.75,351.89,22.99,361.7,10.05"/>
</svg>
