<?xml version="1.0" encoding="UTF-8"?> <svg xmlns="http://www.w3.org/2000/svg" id="Layer_1" data-name="Layer 1" viewBox="0 0 1456.1 173.35"><defs><style>.cls-1,.cls-2{fill:#ebda44;}.cls-2,.cls-3{opacity:0.99;}.cls-3{fill:#f8efa7;}</style></defs><path class="cls-1" d="M882.93,58.67A44,44,0,0,0,865.51,49c-4.11-1.15-19-5.47-26.89,2.37-.3.3-5.77,5.9-3.87,11.67,1.36,4.14,6,6.94,10.24,7,7.08.12,9.09-7.54,17.8-11.29C866.82,57,873.2,55.73,882.93,58.67Z"></path><path class="cls-1" d="M898.46,47.26a44.1,44.1,0,0,1-5.72-19.08c-.24-4.27-1.27-19.72,8.09-25.76.35-.23,7-4.37,12.23-1.28,3.75,2.22,5.48,7.38,4.65,11.51-1.39,6.94-9.31,7.26-14.84,15C900.3,31.18,897.67,37.13,898.46,47.26Z"></path><g id="Text"><g id="Stand"><path d="M1119.86,121.24q0-11.7-8.59-18.71t-29.78-12.82q-21.27-5.73-31.14-13t-9.87-21.32q0-13.92,11.62-22.22t29.65-8.29q18.2,0,29.74,10.17t11.19,26.15l-.17.51h-3.93a29.59,29.59,0,0,0-10.26-23.07q-10.24-9.13-26.57-9.14-16.92,0-26.79,7.56t-9.87,18.16a22.23,22.23,0,0,0,8.16,17.6q8.16,7,29.53,12.48,20.67,5.46,31.23,13.37t10.55,22.43q0,14.79-12,23.29t-30.16,8.5q-18.72,0-32.22-8.76t-13.07-27.56l.17-.51h3.85q0,16.92,12.47,24.57t28.8,7.64q16.41,0,27-7.52T1119.86,121.24Z"></path><path d="M1156.86,33.66v25h22.73v4.7h-22.73v63.91q0,11.37,3.85,16.2a12.36,12.36,0,0,0,10.16,4.82c1.54,0,2.91-.05,4.11-.17s2.84-.31,5-.6l.86,4.19a22.56,22.56,0,0,1-4.45.94,47.69,47.69,0,0,1-5.21.26q-9.32,0-14.14-6.07t-4.83-19.57V63.31h-17.09v-4.7h17.09v-25Z"></path><path d="M1259.4,134a36,36,0,0,1-14.27,13.63q-9.48,5.27-23,5.26-12.9,0-20.25-7.05t-7.35-19q0-11.62,11-19.49T1233,99.45h26.4V86q0-11.53-7.39-18t-20.81-6.45q-12.56,0-20.21,6.07a19.06,19.06,0,0,0-7.65,15.64l-3.84-.17-.17-.43q-.51-10.77,8.37-18.25t23.5-7.47q14.86,0,23.84,7.52t9,21.7v46.32a79.42,79.42,0,0,0,.56,9.48,59,59,0,0,0,1.84,9.14h-5.13q-1.11-6.06-1.5-9.1a53.29,53.29,0,0,1-.38-6.53Zm-37.26,14.36q13.75,0,23.29-6.07a35.16,35.16,0,0,0,14-17.34V104.15h-26.15q-14.36,0-24.22,6.62t-9.87,16.37a20,20,0,0,0,6.28,15.25Q1211.71,148.33,1222.14,148.33Z"></path><path d="M1297.68,58.61l.6,19a33.8,33.8,0,0,1,12.22-15.34q8-5.41,19.82-5.42,15.14,0,22.69,9.53t7.56,30.2v54.43H1356V96.46q0-19.23-6.88-27.09t-18.67-7.86q-15,0-22.56,8.93t-9.49,22.86v57.76h-4.61V58.61Z"></path><path d="M1385.27,104.75q0-22,9.23-34.91t25.63-12.94q10.84,0,18.76,4.87a35.75,35.75,0,0,1,12.6,13.33V17.76h4.61v133.3h-4.44l-.17-14.35a33.25,33.25,0,0,1-12.69,11.79,39,39,0,0,1-18.84,4.36q-16.32,0-25.51-12.48t-9.18-33.84Zm4.78,1.79q0,19.15,7.56,30.42t22.26,11.28q12.06,0,20-5.47a31,31,0,0,0,11.58-14.61V84.84a38.4,38.4,0,0,0-10.77-16.62q-7.42-6.7-20.68-6.71-14.68,0-22.34,12t-7.65,31.23Z"></path></g><g id="Lemonade"><path d="M4.7,146.45H68.53v4.61H0V26.65H4.7Z"></path><path d="M119.46,152.86q-15.81,0-27.3-12.78t-11.5-31.74v-5.47q0-19.91,11.11-32.94t27.43-13q15.64,0,25.51,10.25t9.87,27.52v7.09H85.28v6.58q0,16.74,9.82,28.32t24.36,11.58q10.33,0,17.3-2.82A31.28,31.28,0,0,0,148.68,137l2.48,3.59a35.17,35.17,0,0,1-13.29,9.19A49.52,49.52,0,0,1,119.46,152.86Zm-.26-91.35a29.7,29.7,0,0,0-22.9,10Q87.17,81.6,86,96.63l.26.51H150V94.33q0-14.1-8.54-23.46T119.2,61.51Z"></path><path d="M179.19,58.61l.6,19a34.56,34.56,0,0,1,12-15.29Q199.69,56.9,211,56.9q12,0,19.44,6.11t10.3,18.84q3.67-11.79,12-18.41t20.8-6.63q15.3,0,23.25,10t7.94,31.45V151H300V98.08q0-20.07-7.18-28.36t-19.14-8.29q-14.69,0-22.21,8.84t-9.4,22.86c0,1.14,0,2.12.08,3s.09,1.64.09,2.43v52.55h-4.7V98.17q0-20.16-7.18-28.41t-19.22-8.25q-14.37,0-21.79,8.42t-9.49,21.83v59.3h-4.7V58.61Z"></path><path d="M325.73,103q0-20.34,11.24-33.24t29.18-12.9q18,0,29.27,12.9T406.65,103v3.59q0,20.43-11.23,33.32t-29.1,12.91q-18,0-29.31-12.91t-11.28-33.32Zm4.62,3.59q0,17.43,9.74,29.52t26.23,12.09q16.23,0,26-12.13T402,106.63V103q0-17-9.83-29.27T366.15,61.51q-16.32,0-26.06,12.26T330.35,103Z"></path><path d="M432.71,58.61l.6,19a33.87,33.87,0,0,1,12.22-15.34q8-5.41,19.83-5.42,15.12,0,22.68,9.53t7.57,30.2v54.43H491V96.46q0-19.23-6.88-27.09t-18.67-7.86q-15,0-22.56,8.93T433.4,93.3v57.76h-4.62V58.61Z"></path><path d="M582.59,134a35.93,35.93,0,0,1-14.27,13.63q-9.48,5.27-23,5.26-12.92,0-20.25-7.05t-7.35-19q0-11.62,11-19.49t27.47-7.86h26.4V86q0-11.53-7.39-18t-20.81-6.45q-12.55,0-20.2,6.07a19.06,19.06,0,0,0-7.65,15.64l-3.85-.17-.17-.43Q522,71.85,530.9,64.37t23.49-7.47q14.88,0,23.84,7.52t9,21.7v46.32a79.44,79.44,0,0,0,.55,9.48,60.15,60.15,0,0,0,1.84,9.14h-5.13Q583.36,145,583,142a51.3,51.3,0,0,1-.39-6.53Zm-37.25,14.36q13.75,0,23.28-6.07a35.16,35.16,0,0,0,14-17.34V104.15H556.45q-14.36,0-24.23,6.62t-9.87,16.37a20,20,0,0,0,6.28,15.25Q534.92,148.33,545.34,148.33Z"></path><path d="M612.67,104.75q0-22,9.23-34.91T647.53,56.9q10.86,0,18.76,4.87a35.68,35.68,0,0,1,12.6,13.33V17.76h4.62v133.3h-4.45l-.17-14.35a33.15,33.15,0,0,1-12.68,11.79,39.07,39.07,0,0,1-18.85,4.36q-16.32,0-25.5-12.48t-9.19-33.84Zm4.79,1.79q0,19.15,7.56,30.42t22.26,11.28q12,0,20-5.47a31,31,0,0,0,11.57-14.61V84.84a38.47,38.47,0,0,0-10.76-16.62q-7.44-6.7-20.68-6.71-14.7,0-22.35,12t-7.64,31.23Z"></path><path d="M744.26,152.86q-15.81,0-27.3-12.78t-11.49-31.74v-5.47q0-19.91,11.11-32.94T744,56.9q15.63,0,25.5,10.25t9.87,27.52v7.09h-69.3v6.58q0,16.74,9.83,28.32t24.35,11.58q10.34,0,17.31-2.82A31.36,31.36,0,0,0,773.49,137l2.47,3.59a35.06,35.06,0,0,1-13.28,9.19A49.58,49.58,0,0,1,744.26,152.86ZM744,61.51a29.67,29.67,0,0,0-22.9,10q-9.15,10-10.34,25.08l.25.51h63.75V94.33q0-14.1-8.55-23.46T744,61.51Z"></path></g></g><g id="Lemon"><path id="rine" class="cls-2" d="M821,130.87a101.5,101.5,0,1,0,159-125.78s-1.57,0-1.57,0L821.54,128.44S820.71,130.44,821,130.87Z"></path><path id="inner" class="cls-3" d="M831.24,120.78A87.08,87.08,0,1,0,967.91,13.36Z"></path><g id="inner_lemon" data-name="inner lemon"><path class="cls-2" d="M900.84,69.24l35.5,45.05s15.21,20.51-4.12,33.67c-16.48,11.23-32.75,0-35.5-16S900.84,69.24,900.84,69.24Z"></path><path class="cls-2" d="M903.1,67.69,939,113.34s17,19,33.82,2.74c14.31-13.89,6.58-32.09-8.54-38S903.1,67.69,903.1,67.69Z"></path><path class="cls-2" d="M904.66,65.37,947,31.85s20.15-14.77,32.92,4.22c10.89,16.19-.18,32-15.85,34.64S904.66,65.37,904.66,65.37Z"></path><path class="cls-2" d="M897.91,71.24l-42.76,33s-19.2,16-3.87,33c13.07,14.48,31.14,7.58,37.45-7S897.91,71.24,897.91,71.24Z"></path></g></g></svg> 