<?xml version="1.0" encoding="utf-8"?>
<!-- Generator: Adobe Illustrator 20.1.0, SVG Export Plug-In . SVG Version: 6.00 Build 0)  -->
<svg version="1.1" id="Layer_1" xmlns="http://www.w3.org/2000/svg" xmlns:xlink="http://www.w3.org/1999/xlink" x="0px" y="0px"
	 viewBox="0 0 342 56.9" style="enable-background:new 0 0 342 56.9;" xml:space="preserve">
<style type="text/css">
	.st0{fill:#00303C;}
	.st1{fill:url(#SVGID_1_);}
	.st2{fill:#A3A467;}
	.st3{fill:#D6DDDE;}
</style>
<g>
	<path class="st0" d="M151.1,40.1l-5.2-2.2v-6.7c0-0.5-0.2-0.9-0.6-1.1l-29.2-18.9L103.9,0.3c0,0,0,0,0,0c-0.1-0.1-0.1-0.1-0.2-0.2
		c0,0,0,0-0.1,0c-0.1,0-0.2-0.1-0.3-0.1c0,0,0,0,0,0c-0.1,0-0.1,0-0.2,0c0,0-0.1,0-0.1,0c0,0-0.1,0-0.1,0c-0.1,0-0.2,0-0.3,0.1
		c0,0,0,0,0,0l-23.4,9c-0.2,0.1-0.4,0.2-0.6,0.4l-0.2,0.3l-7.1-3l-3.1-0.5l-5.6,2h-3.9L33.1,28.7l-4.6,0.7l-17.4,18L0,56.9h151.9
		V41.4C151.9,40.8,151.6,40.4,151.1,40.1z"/>
	<linearGradient id="SVGID_1_" gradientUnits="userSpaceOnUse" x1="128.4826" y1="62.4119" x2="101.9974" y2="11.2218">
		<stop  offset="0" style="stop-color:#D6DDDE"/>
		<stop  offset="1" style="stop-color:#6B868E"/>
	</linearGradient>
	<path class="st1" d="M87.8,14.3l11.4,6v10.8c0,0.4,0.2,0.8,0.5,1c0.3,0.3,0.7,0.4,1.1,0.3l2.5-0.5c0.6-0.1,1.1-0.7,1.1-1.3V21
		l15.4,8.9c0,0,0.1,0,0.1,0l23.5,9.9V47l-22.8-5.6l-13.1-4.5c-0.2-0.1-0.4-0.1-0.6-0.1l-3.6,0.5l-15.3-4.2V14.3z M145.9,42.1
		l3.3,1.3v6.1l-3.3-0.8V42.1z M114.6,13.4L143.3,32v3.8l-22.7-10.4l-16.2-10.9V4.3l10.1,9C114.5,13.3,114.6,13.4,114.6,13.4z
		 M102.9,46.2l-15-3.2v-7.1l14.8,4.1c0.2,0,0.4,0.1,0.5,0l3.6-0.5l12.9,4.4c0,0,0.1,0,0.1,0l23.5,5.8v4.5h-39.4v-6.7
		C103.9,46.9,103.5,46.4,102.9,46.2z M145.9,54.2v-2.8l3.3,0.8v2H145.9z"/>
	<polygon class="st2" points="76,11.3 71.1,9.3 68.2,8.8 68.2,8.8 68.1,8.8 63.2,11 59.8,10.8 40.6,26.2 46.6,24.8 43.7,28.7 
		31.1,31.6 14.4,48.3 8.6,53.3 26.4,46.5 34.3,36.1 44.2,32.5 53.4,42.7 54.3,33.4 66.9,24.5 76,27.6 	"/>
	<g>
		<path class="st3" d="M79.6,16.4l5.6-2v16.3c-0.1-0.1-0.2-0.1-0.3-0.1l-5.3-1.7V16.4z"/>
		<polygon class="st3" points="101.7,14.2 100.8,14.6 94.9,11.1 101.7,8.7 		"/>
		<polygon class="st3" points="101.7,5.9 91.9,9.3 89.6,7.9 101.7,3.3 		"/>
		<polygon class="st3" points="85.2,11.6 79.6,13.6 79.6,12.5 80.4,11.5 85.2,9.6 		"/>
	</g>
</g>
<g>
	<g>
		<g>
			<g>
				<path class="st0" d="M174.7,13.7h4v13.2c0,6.2-3.8,8.2-8.1,8.2c-4.3,0-8.1-2-8.1-8.2V13.7h4V27c0,3.4,1.3,4.6,4.1,4.6
					c2.7,0,4.1-1.2,4.1-4.6V13.7z"/>
				<path class="st0" d="M196.2,13.7V17h-5.5v17.7h-4V17h-5.5v-3.4H196.2z"/>
				<path class="st0" d="M201.6,13.7h5l6,21.1h-4l-1.2-4.5h-6.6l-1.3,4.5h-4L201.6,13.7z M201.7,26.9h4.9l-2.4-9.2h-0.1L201.7,26.9z
					"/>
				<path class="st0" d="M215.4,34.7v-21h4v8.4h8.1v-8.4h4v21h-4v-9h-8.1v9H215.4z"/>
				<path class="st0" d="M243.2,13.7h4l3.7,15.5h0.1l3.9-15.5h4l-5.6,21h-4.5L243.2,13.7z"/>
				<path class="st0" d="M264.5,13.7h5l6,21.1h-4l-1.2-4.5h-6.6l-1.3,4.5h-4L264.5,13.7z M264.6,26.9h4.9l-2.4-9.2H267L264.6,26.9z"
					/>
				<path class="st0" d="M278.1,34.7v-21h4v17.7h9.2v3.4H278.1z"/>
				<path class="st0" d="M294.3,34.7v-21h4v17.7h9.2v3.4H294.3z"/>
				<path class="st0" d="M310.7,34.7v-21h13.9v3.4h-9.9v5h7.2v3.4h-7.2v5.9H325v3.4H310.7z"/>
				<path class="st0" d="M334.2,22l3.6-8.3h4.2l-5.8,12.7v8.4h-4v-8.4l-5.8-12.7h4.2L334.2,22z"/>
			</g>
		</g>
		<g>
			<path class="st0" d="M169.5,42.9c-0.3-1-1-1.7-2.1-1.7c-1.5,0-2.4,1.4-2.4,4.1c0,2.7,0.8,4.1,2.5,4.1c1,0,1.6-0.4,2.3-1.7
				l2.1,0.5c-0.7,2-2.2,3.1-4.3,3.1c-3,0-4.7-2.2-4.7-6c0-3.8,1.7-6,4.7-6c2.2,0,3.5,1,4.1,3.1L169.5,42.9z"/>
			<path class="st0" d="M178.5,51.3c-3.2,0-4.9-2.2-4.9-6c0-3.8,1.7-6,4.9-6c3.2,0,4.9,2.2,4.9,6C183.4,49.1,181.7,51.3,178.5,51.3z
				 M178.5,41.2c-1.8,0-2.7,1.4-2.7,4.1c0,2.7,0.8,4.1,2.7,4.1c1.8,0,2.7-1.4,2.7-4.1C181.2,42.6,180.3,41.2,178.5,41.2z"/>
			<path class="st0" d="M185.8,51.1V39.5h2.3l4.6,7.9h0v-7.9h2.1v11.7h-2.1l-4.8-8.3h0v8.3H185.8z"/>
			<path class="st0" d="M197.3,39.5h2.2l2.1,8.6h0l2.2-8.6h2.2l-3.1,11.7h-2.5L197.3,39.5z"/>
			<path class="st0" d="M208.5,51.1V39.5h7.7v1.9h-5.5v2.8h4V46h-4v3.3h5.7v1.9H208.5z"/>
			<path class="st0" d="M219.2,51.1V39.5h2.3l4.6,7.9h0v-7.9h2.1v11.7h-2.1l-4.8-8.3h0v8.3H219.2z"/>
			<path class="st0" d="M239.2,39.5v1.9h-3.1v9.8h-2.2v-9.8h-3.1v-1.9H239.2z"/>
			<path class="st0" d="M241.8,51.1V39.5h2.2v11.7H241.8z"/>
			<path class="st0" d="M251.3,51.3c-3.2,0-4.9-2.2-4.9-6c0-3.8,1.7-6,4.9-6s4.9,2.2,4.9,6C256.2,49.1,254.4,51.3,251.3,51.3z
				 M251.3,41.2c-1.8,0-2.7,1.4-2.7,4.1c0,2.7,0.8,4.1,2.7,4.1c1.8,0,2.7-1.4,2.7-4.1C253.9,42.6,253.1,41.2,251.3,41.2z"/>
			<path class="st0" d="M258.6,51.1V39.5h2.3l4.6,7.9h0v-7.9h2.1v11.7h-2.1l-4.8-8.3h0v8.3H258.6z"/>
			<path class="st0" d="M282.7,42.9c-0.3-1-1-1.7-2.1-1.7c-1.5,0-2.4,1.4-2.4,4.1c0,2.7,0.8,4.1,2.5,4.1c1,0,1.6-0.4,2.3-1.7
				l2.1,0.5c-0.7,2-2.2,3.1-4.3,3.1c-3,0-4.7-2.2-4.7-6c0-3.8,1.7-6,4.7-6c2.2,0,3.5,1,4.1,3.1L282.7,42.9z"/>
			<path class="st0" d="M287.7,51.1V39.5h7.7v1.9h-5.5v2.8h4V46h-4v3.3h5.7v1.9H287.7z"/>
			<path class="st0" d="M298.5,51.1V39.5h2.3l4.6,7.9h0v-7.9h2.1v11.7h-2.1l-4.8-8.3h0v8.3H298.5z"/>
			<path class="st0" d="M318.5,39.5v1.9h-3.1v9.8h-2.2v-9.8h-3.1v-1.9H318.5z"/>
			<path class="st0" d="M321.1,51.1V39.5h7.7v1.9h-5.5v2.8h4V46h-4v3.3h5.7v1.9H321.1z"/>
			<path class="st0" d="M331.8,51.1V39.5h4.7c2.6,0,3.7,1.5,3.7,3.5c0,1.4-0.7,2.6-2.1,3l2.6,5.2h-2.5l-2.2-4.7h-1.9v4.7H331.8z
				 M334.1,44.6h1.6c1.7,0,2.3-0.5,2.3-1.6s-0.7-1.6-1.9-1.6h-2V44.6z"/>
		</g>
	</g>
</g>
</svg>
