<?xml version="1.0" encoding="utf-8"?>
<!-- Generator: Adobe Illustrator 22.1.0, SVG Export Plug-In . SVG Version: 6.00 Build 0)  -->
<svg version="1.1" id="Layer_1" xmlns="http://www.w3.org/2000/svg" xmlns:xlink="http://www.w3.org/1999/xlink" x="0px" y="0px"
	 width="646px" height="150px" viewBox="0 0 646 150" style="enable-background:new 0 0 646 150;" xml:space="preserve">
<style type="text/css">
	.st0{fill:#0033A1;}
	.st1{fill:#98989A;}
</style>
<g>
	<g>
		<path class="st0" d="M258.9,34.5c-5.5-6.8-12.4-10.1-20.5-10.1c-3.6,0-6.9,0.7-10,2s-5.7,3.1-7.9,5.3c-2.2,2.2-3.9,4.9-5.2,8
			c-1.3,3.1-1.9,6.4-1.9,10c0,3.7,0.6,7,1.9,10.1c1.3,3.1,3,5.8,5.3,8.1c2.2,2.3,4.9,4.1,7.9,5.4c3,1.3,6.3,2,9.8,2
			c7.7,0,14.5-3.3,20.6-9.8v28.3l-2.4,0.9c-3.7,1.3-7.1,2.3-10.3,2.9c-3.2,0.6-6.3,0.9-9.4,0.9c-6.4,0-12.4-1.2-18.3-3.6
			c-5.8-2.4-11-5.8-15.4-10.1c-4.4-4.4-8-9.5-10.7-15.5s-4-12.5-4-19.6s1.3-13.6,4-19.5c2.6-5.9,6.2-11,10.6-15.3
			c4.4-4.3,9.6-7.6,15.5-10c5.9-2.4,12-3.6,18.4-3.6c3.7,0,7.3,0.4,10.8,1.2c3.5,0.8,7.3,2,11.2,3.6V34.5z"/>
		<path class="st0" d="M313.6,3.8v71.8h28.7v20.3h-52.6V3.8H313.6z"/>
		<path class="st0" d="M458.7,3.8h35.4c6.3,0,12.1,1.3,17.6,3.8c5.5,2.5,10.3,5.9,14.4,10.1c4.1,4.2,7.3,9.1,9.7,14.7
			c2.4,5.6,3.5,11.4,3.5,17.5c0,6-1.2,11.8-3.5,17.4c-2.3,5.6-5.5,10.5-9.6,14.7c-4.1,4.2-8.9,7.6-14.4,10.1
			c-5.5,2.5-11.4,3.8-17.8,3.8h-35.4V3.8z M482.6,75.6h5.5c4.2,0,7.9-0.7,11.1-2s6-3.1,8.2-5.4c2.2-2.3,3.9-5,5.1-8.1
			c1.2-3.1,1.8-6.6,1.8-10.3c0-3.7-0.6-7.1-1.8-10.3s-3-5.9-5.2-8.2c-2.2-2.3-5-4.1-8.2-5.4s-6.9-2-11-2h-5.5V75.6z"/>
		<path class="st0" d="M616.1,24h-28.5v15.4h26.9v20.3h-26.9v15.9h28.5v20.3h-52.4V3.8h52.4V24z"/>
		<path class="st0" d="M78.9,132.4c-2.5,0-4.8-1.3-6-3.5l-28-48.6c-1.2-2.2-1.2-4.8,0-7l28-48.6c1.2-2.2,3.5-3.5,6-3.5h55.6
			l-7.4-12.7c-1.6-2.8-4.6-4.5-7.8-4.5H46.5c-3.2,0-6.2,1.7-7.8,4.5L2.2,71.8c-1.6,2.8-1.6,6.2,0,9l36.4,63.1
			c1.6,2.8,4.6,4.5,7.8,4.5h72.9c3.2,0,6.2-1.7,7.8-4.5l6.6-11.5H78.9z"/>
		<path class="st1" d="M118.4,46.1c1.4,0,2.7,0.7,3.4,2l15.8,27.4c0.7,1.2,0.7,2.7,0,3.9l-15.8,27.4c-0.7,1.2-2,2-3.4,2H81.6
			l4.2,7.2c0.9,1.6,2.6,2.5,4.4,2.5h46.5c1.8,0,3.5-1,4.4-2.5l20.6-35.6c0.9-1.6,0.9-3.5,0-5.1l-20.6-35.6c-0.9-1.6-2.6-2.5-4.4-2.5
			H90.2c-1.8,0-3.5,1-4.4,2.5L82,46.1H118.4z"/>
		<path class="st0" d="M380.9,66.9L347.4,3.2h26.9L393,42.2l18.1-38.9h27.3l-33.6,63.7v29.6h-23.9V66.9z"/>
		<g>
			<path class="st1" d="M211.8,123.6v4.7c-2.3-1.9-4.7-2.9-7.1-2.9c-2.7,0-5,1-6.8,2.9c-1.9,1.9-2.8,4.3-2.8,7.1
				c0,2.8,0.9,5.1,2.8,7c1.9,1.9,4.1,2.8,6.8,2.8c1.4,0,2.6-0.2,3.6-0.7c0.5-0.2,1.1-0.5,1.7-0.9c0.6-0.4,1.2-0.9,1.8-1.4v4.8
				c-2.3,1.3-4.7,1.9-7.1,1.9c-3.8,0-7-1.3-9.6-3.9c-2.6-2.6-4-5.8-4-9.6c0-3.3,1.1-6.3,3.3-8.9c2.7-3.2,6.2-4.8,10.6-4.8
				C207.4,121.7,209.6,122.3,211.8,123.6z"/>
			<path class="st1" d="M242.6,135.2c0-3.7,1.4-6.9,4.1-9.5c2.7-2.7,5.9-4,9.7-4c3.7,0,7,1.3,9.6,4c2.7,2.7,4,5.9,4,9.7
				c0,3.8-1.4,7-4.1,9.6c-2.7,2.6-6,4-9.8,4c-3.4,0-6.4-1.2-9.1-3.5C244.1,142.8,242.6,139.4,242.6,135.2z M246.6,135.3
				c0,2.9,1,5.3,2.9,7.2c1.9,1.9,4.2,2.8,6.7,2.8c2.8,0,5.1-1,7-2.9c1.9-1.9,2.8-4.3,2.8-7c0-2.8-0.9-5.1-2.8-7
				c-1.9-1.9-4.2-2.9-6.9-2.9c-2.7,0-5,0.9-6.9,2.9C247.6,130.2,246.6,132.5,246.6,135.3z"/>
			<path class="st1" d="M301.4,148.5l5.5-28.2l9,20.4l9.3-20.4l5,28.2h-4.1l-2.5-15.9l-7.8,17.1l-7.6-17.1l-2.8,15.9H301.4z"/>
			<path class="st1" d="M367,137.8v10.7h-4v-26.3h4.5c2.2,0,3.9,0.2,5,0.5c1.1,0.3,2.1,0.9,3,1.7c1.5,1.5,2.3,3.3,2.3,5.6
				c0,2.4-0.8,4.3-2.4,5.7c-1.6,1.4-3.8,2.1-6.5,2.1H367z M367,134.1h1.5c3.6,0,5.5-1.4,5.5-4.2c0-2.7-1.9-4.1-5.6-4.1H367V134.1z"
				/>
			<path class="st1" d="M422.7,142.1h-11.2l-2.9,6.4h-4.3l13-27.9l12.5,27.9h-4.3L422.7,142.1z M421.1,138.4l-3.9-8.9l-4.1,8.9
				H421.1z"/>
			<path class="st1" d="M460.3,148.5v-28.1l19.2,20v-18.3h4v27.9l-19.2-20v18.4H460.3z"/>
			<path class="st1" d="M520.9,122.2v26.3h-4v-26.3H520.9z"/>
			<path class="st1" d="M569,125.9h-10.5v6.3h10.2v3.7h-10.2v8.8H569v3.7h-14.5v-26.3H569V125.9z"/>
			<path class="st1" d="M616.3,126.1l-3.2,1.9c-0.6-1-1.2-1.7-1.7-2c-0.6-0.4-1.3-0.5-2.2-0.5c-1.1,0-2,0.3-2.7,0.9
				c-0.7,0.6-1.1,1.4-1.1,2.3c0,1.3,1,2.3,2.9,3.1l2.6,1.1c2.1,0.9,3.7,1.9,4.7,3.2c1,1.2,1.5,2.8,1.5,4.6c0,2.4-0.8,4.4-2.4,6
				c-1.6,1.6-3.6,2.4-6,2.4c-2.3,0-4.2-0.7-5.6-2c-1.5-1.4-2.4-3.2-2.7-5.7l4-0.9c0.2,1.5,0.5,2.6,1,3.2c0.8,1.1,2,1.7,3.6,1.7
				c1.2,0,2.3-0.4,3.1-1.2c0.8-0.8,1.2-1.9,1.2-3.2c0-0.5-0.1-1-0.2-1.4c-0.1-0.4-0.4-0.8-0.7-1.2c-0.3-0.4-0.7-0.7-1.2-1
				s-1-0.6-1.7-0.9l-2.5-1.1c-3.6-1.5-5.4-3.7-5.4-6.7c0-2,0.8-3.6,2.3-5c1.5-1.3,3.4-2,5.6-2C612.3,121.7,614.6,123.2,616.3,126.1z
				"/>
		</g>
	</g>
	<g>
		<g>
			<path class="st1" d="M626.9,86.7c0-4.5,3.5-8,8-8c4.4,0,8,3.6,8,8c0,4.4-3.6,8-8,8C630.4,94.7,626.9,91.1,626.9,86.7z M641,86.7
				c0-3.6-2.7-6.1-6.1-6.1c-3.5,0-6.1,2.5-6.1,6.1c0,3.6,2.6,6.1,6.1,6.1C638.3,92.8,641,90.2,641,86.7z M638.7,90.7h-2l-1.9-3.5
				h-1.3v3.5h-1.9v-8.3h4c1.9,0,3.2,0.3,3.2,2.5c0,1.5-0.8,2.2-2.3,2.3L638.7,90.7z M635.8,86c0.9,0,1.5-0.2,1.5-1.3
				c0-0.8-1.1-0.8-1.9-0.8h-1.8V86H635.8z"/>
		</g>
	</g>
</g>
</svg>
