<?xml version="1.0" encoding="utf-8"?>
<!-- Generator: Adobe Illustrator 21.1.0, SVG Export Plug-In . SVG Version: 6.00 Build 0)  -->
<svg version="1.1" id="Layer_1" xmlns="http://www.w3.org/2000/svg" xmlns:xlink="http://www.w3.org/1999/xlink" x="0px" y="0px"
	 viewBox="0 0 100 42.2" style="enable-background:new 0 0 100 42.2;" xml:space="preserve">
<style type="text/css">
	.st0{fill:#FFFFFF;}
</style>
<g>
	<g>
		<path class="st0" d="M9.5,18.1c0,2-1.1,3-2.7,3c-1.6,0-2.7-1-2.7-3.1V9.9H0v8.2c0,4.6,2.6,6.7,6.8,6.7s6.9-2.1,6.9-6.8V9.9H9.5
			V18.1z"/>
		<polygon class="st0" points="19.6,24.5 23.7,24.5 23.7,13.4 28.1,13.4 28.1,9.8 15.2,9.8 15.2,13.4 19.6,13.4 		"/>
		<polygon class="st0" points="38.8,24.5 43.2,24.5 36.9,9.7 33,9.7 33,9.8 33,9.8 22.6,36.7 19.3,27.4 14.7,27.4 20.7,42.2 
			24.5,42.2 35,14.6 		"/>
		<polygon class="st0" points="53.9,15.3 48.7,15.3 48.7,9.8 44.6,9.8 44.6,24.5 48.7,24.5 48.7,18.9 53.9,18.9 53.9,24.5 
			57.9,24.5 57.9,9.8 53.9,9.8 		"/>
		<path class="st0" d="M34.8,27.3l-6.2,14.8h4.3l1-2.6h5.7l1.1,2.6h4.4l-6.2-14.8H34.8z M35.1,36.3l1.7-4.2l1.6,4.2H35.1z"/>
		<polygon class="st0" points="50.4,27.4 46.4,27.4 46.4,42.1 57.5,42.1 57.5,38.5 50.4,38.5 		"/>
		<polygon class="st0" points="63.3,27.4 59.3,27.4 59.3,42.1 70.4,42.1 70.4,38.5 63.3,38.5 		"/>
		<polygon class="st0" points="76.2,36.3 83.2,36.3 83.2,33.1 76.2,33.1 76.2,30.9 83.9,30.9 83.9,27.4 72.2,27.4 72.2,42.1 
			84,42.1 84,38.6 76.2,38.6 		"/>
		<polygon class="st0" points="95.5,27.4 92.4,32.8 89.4,27.4 84.8,27.4 90.3,36.6 90.3,42.1 94.4,42.1 94.4,36.5 100,27.4 		"/>
	</g>
	<g>
		<path class="st0" d="M25.8,7.1C25.7,7.1,25.7,7,25.8,7.1l-0.1-6.9c0,0,0-0.1,0.1-0.1h2.9c0,0,0.1,0,0.1,0.1V1c0,0,0,0.1-0.1,0.1
			h-1.9V3h1.4c0,0,0.1,0,0.1,0.1v0.8c0,0.1,0,0.1-0.1,0.1h-1.4v2h1.9c0,0,0.1,0,0.1,0.1V7c0,0.1,0,0.1-0.1,0.1H25.8z"/>
		<path class="st0" d="M34.4,0.1C34.4,0.1,34.4,0.1,34.4,0.1L35,2.1l0.6-2c0-0.1,0-0.1,0.1-0.1h0.9c0.1,0,0.1,0,0.1,0.1l-1,3.4
			l1,3.4c0,0,0,0.1-0.1,0.1h-0.9c0,0-0.1,0-0.1-0.1L35,5l-0.6,2c0,0.1,0,0.1-0.1,0.1h-0.9c-0.1,0-0.1,0-0.1-0.1l1-3.4l-1-3.4
			c0,0,0-0.1,0.1-0.1H34.4z"/>
		<path class="st0" d="M41.7,7.1C41.6,7.1,41.6,7,41.7,7.1l-0.1-6.9c0,0,0-0.1,0.1-0.1h0.1h0h0.8h0H43c1.2,0,1.6,0.6,1.6,1.6v0.7
			C44.6,3.3,44.2,4,43,4h-0.3v3c0,0.1,0,0.1-0.1,0.1H41.7z M42.7,1.1V3H43c0.5,0,0.6-0.4,0.6-0.7V1.8c0-0.3-0.1-0.7-0.6-0.7H42.7z"
			/>
		<path class="st0" d="M49.7,7.1C49.7,7.1,49.6,7,49.7,7.1l-0.1-6.9c0,0,0-0.1,0.1-0.1h0.9c0,0,0.1,0,0.1,0.1v5.9h1.9
			c0,0,0.1,0,0.1,0.1V7c0,0.1,0,0.1-0.1,0.1H49.7z"/>
		<path class="st0" d="M58.8,7.2c-1,0-1.5-0.7-1.5-1.5V1.5c0-0.8,0.5-1.5,1.5-1.5c1.1,0,1.5,0.6,1.5,1.5v4.1
			C60.4,6.4,59.9,7.2,58.8,7.2z M58.4,5.6c0,0.3,0.1,0.6,0.5,0.6c0.4,0,0.5-0.3,0.5-0.6v-4c0-0.3-0.1-0.6-0.5-0.6
			c-0.4,0-0.5,0.4-0.5,0.6V5.6z"/>
		<path class="st0" d="M67.5,7.1C67.5,7.1,67.4,7,67.5,7.1l-0.8-3v3c0,0.1,0,0.1-0.1,0.1h-0.9c-0.1,0-0.1,0-0.1-0.1V0.2
			c0,0,0-0.1,0.1-0.1H67c1.2,0,1.6,0.6,1.6,1.6v0.7c0,0.7-0.3,1.3-0.9,1.5L68.6,7c0,0.1,0,0.1-0.1,0.1H67.5z M66.7,1.1V3H67
			c0.5,0,0.6-0.4,0.6-0.7V1.8c0-0.3-0.1-0.7-0.6-0.7H66.7z"/>
		<path class="st0" d="M73.9,7.1C73.8,7.1,73.8,7,73.9,7.1l-0.1-6.9c0,0,0-0.1,0.1-0.1h2.9c0,0,0.1,0,0.1,0.1V1c0,0,0,0.1-0.1,0.1
			h-1.9V3h1.4c0,0,0.1,0,0.1,0.1v0.8c0,0.1,0,0.1-0.1,0.1h-1.4v2h1.9c0,0,0.1,0,0.1,0.1V7c0,0.1,0,0.1-0.1,0.1H73.9z"/>
	</g>
</g>
</svg>
