<svg xmlns="http://www.w3.org/2000/svg" xmlns:xlink="http://www.w3.org/1999/xlink" viewBox="0 0 180 18.52"><defs><style>.cls-1{fill:#fdc82f;}.cls-2{fill:#fff;}</style><symbol id="Wavetronix_brandmark" data-name="Wavetronix brandmark" viewBox="0 0 18 18"><path class="cls-1" d="M0,0H11.25s-9,2.25-9,6.75C2.25,13.5,18,16.88,18,16.88V18H0ZM13.5,0S5.62,2.25,5.62,5.62c0,4.5,12.38,6.76,12.38,6.76V0Z"/></symbol></defs><g id="Layer_2" data-name="Layer 2"><g id="images"><use width="18" height="18" transform="translate(0 0.25)" xlink:href="#Wavetronix_brandmark"/></g><g id="text"><path class="cls-2" d="M43.57,18.25H38.35L35.29,4.59,32.2,18.25H27L22.5.27h4l3.09,12.85L32.8.27h5l3.11,12.85L44,.27H48Z"/><path class="cls-2" d="M62.9,18.25H58.64l-1-3.51h-6.1l-1,3.51H46.31l5.55-18h5.47ZM52.49,11.36h4.18L54.59,3.83Z"/><path class="cls-2" d="M72,18.25H66.13L61,.27H65.2l3.86,14.31L72.91.27h4.21Z"/><path class="cls-2" d="M78.76,18.25V.27H90.22V3.86H82.86V7.15h6.78v3.59H82.86v3.92h7.36v3.59Z"/><path class="cls-2" d="M100.77,3.86V18.25h-4.1V3.86H91.78V.27h13.88V3.86Z"/><path class="cls-2" d="M137.68,13c0,2.73-1.91,5.51-7.05,5.51s-7-2.78-7-5.51V5.51c0-2.73,1.91-5.51,7-5.51s7.05,2.78,7.05,5.51Zm-4.1-7.15c0-1.41-.9-2.27-3-2.27s-2.95.86-2.95,2.27v6.8c0,1.4.9,2.27,2.95,2.27s3-.87,3-2.27Z"/><path class="cls-2" d="M144.19,6.42V18.25h-3.91V.27h5l6,12.39V.27h3.91v18h-5.06Z"/><path class="cls-2" d="M158.49,18.25V.27h4.1v18Z"/><path class="cls-2" d="M174.48,9.12,180,18.25h-4.29l-3.52-5.94-3.53,5.94h-4.29l5.49-9.13L164.56.27h4.29l3.34,5.67L175.52.27h4.29Z"/><path class="cls-2" d="M118.21,12.09c1.84-.75,2.66-2.26,2.66-4.5V5.37c0-3.37-1.64-5.1-6.07-5.1h-7.57v18h4.1V3.86h3.25c1.67,0,2.19.54,2.19,1.89V7.18c0,1.35-.44,2-2.19,2h-.86v3.51l4,5.59h4.87Z"/></g></g></svg>